<?xml version="1.0" encoding="utf-8"?>
<!-- Generator: Adobe Illustrator 16.0.0, SVG Export Plug-In . SVG Version: 6.00 Build 0)  -->
<!DOCTYPE svg PUBLIC "-//W3C//DTD SVG 1.1//EN" "http://www.w3.org/Graphics/SVG/1.1/DTD/svg11.dtd">
<svg version="1.1" id="Layer_1" xmlns="http://www.w3.org/2000/svg" xmlns:xlink="http://www.w3.org/1999/xlink" x="0px" y="0px"
	 width="203.185px" height="64.754px" viewBox="0 0 203.185 64.754" enable-background="new 0 0 203.185 64.754"
	 xml:space="preserve">
<g>
	<path fill="#FFFFFF" d="M21.96,34.78h-3.679v7.977h3.773c1.889,0,2.831-1.286,2.831-3.871C24.885,36.153,23.908,34.78,21.96,34.78z
		"/>
	<path fill="#FFFFFF" d="M24.412,25.299c0-2.195-0.883-3.297-2.642-3.297h-3.49v6.742h3.582
		C23.564,28.745,24.412,27.597,24.412,25.299z"/>
	<g>
		<g>
			<path fill="#FFFFFF" d="M65.696,0H45.839h-0.159H18.602C8.327,0,0,8.536,0,19.074v26.611c0,10.53,8.328,19.069,18.603,19.069
				h7.101h1.375h31.52h5.842h1.257c10.271,0,18.604-8.541,18.604-19.069V19.074C84.301,8.536,75.968,0,65.696,0z M22.338,48.888
				H10.734V15.867h11.79c6.387,0,9.578,2.912,9.578,8.726c0,3.081-1.274,5.331-3.822,6.746c2.895,1.321,4.34,3.789,4.34,7.41
				C32.62,45.506,29.193,48.888,22.338,48.888z M45.767,48.888H37.97V29.215h7.797V48.888z M74.37,36.392
				c0,4.115-0.932,7.297-2.781,9.528c-1.979,2.327-4.861,3.487-8.636,3.487c-7.828,0-11.743-5.678-11.743-17.032
				c0-11.353,3.96-17.031,11.886-17.031c3.267,0,5.75,0.867,7.451,2.596c1.448,1.479,2.547,3.904,3.302,7.268l-7.547,2.168
				c-0.374-1.951-0.755-3.271-1.131-3.963c-0.473-0.853-1.181-1.271-2.125-1.271c-1.384,0-2.339,0.751-2.875,2.261
				c-0.539,1.509-0.806,4.167-0.806,7.97c0,3.967,0.317,6.718,0.949,8.261c0.594,1.412,1.635,2.12,3.11,2.12
				c2.329,0,3.492-1.384,3.492-4.148v-1.368h-3.819v-6.04H74.37V36.392z"/>
		</g>
	</g>
	<g>
		<path fill="#FFFFFF" d="M106.385,48.977H91.133V15.815h4.635v28.62h10.617V48.977z"/>
		<path fill="#FFFFFF" d="M115.137,48.977h-4.643V15.815h4.643V48.977z"/>
		<path fill="#FFFFFF" d="M138.727,39.25c0,3.028-0.729,5.422-2.173,7.182c-1.619,2.021-4.001,3.029-7.161,3.029
			c-3.348,0-5.895-1.674-7.625-5.02c-1.578-2.965-2.379-6.983-2.379-12.064c0-5.202,0.824-9.307,2.468-12.298
			c1.766-3.188,4.321-4.783,7.678-4.783c4.863,0,7.813,2.7,8.856,8.104l-4.643,1.229c-0.37-1.706-0.895-2.9-1.557-3.599
			c-0.66-0.695-1.603-1.042-2.799-1.042c-1.737,0-3.059,1.181-3.977,3.55c-0.826,2.141-1.234,5.083-1.234,8.837
			c0,3.381,0.385,6.149,1.142,8.323c0.941,2.712,2.41,4.07,4.398,4.07c1.561,0,2.65-0.475,3.293-1.413
			c0.654-0.946,0.976-2.449,0.976-4.527v-2.355H130.3v-4.548h8.428V39.25z"/>
		<path fill="#FFFFFF" d="M161.439,48.977h-4.644V36.453h-9.278v12.524h-4.652V15.815h4.652v16.086h9.278V15.815h4.644V48.977z"/>
		<path fill="#FFFFFF" d="M182.243,20.364h-6.106v28.618h-4.642V20.364h-6.114v-4.549h16.862V20.364z"/>
	</g>
	<g>
		<path fill="#FFFFFF" d="M196.947,22.017l-1.515-3.042h-1.707v3.042h-1.677v-8.455h3.928c0.398,0,0.767,0.055,1.12,0.162
			c0.363,0.111,0.67,0.279,0.939,0.5c0.263,0.225,0.471,0.51,0.625,0.838c0.148,0.337,0.231,0.725,0.231,1.18
			c0,0.634-0.137,1.16-0.403,1.561c-0.279,0.409-0.68,0.716-1.213,0.926l1.616,3.287H196.947z M197.152,16.289
			c0-0.388-0.111-0.661-0.321-0.828c-0.215-0.168-0.514-0.245-0.89-0.245h-2.216v2.176h2.216
			C196.743,17.392,197.152,17.024,197.152,16.289z"/>
		<path fill="#FFFFFF" d="M195.136,9.834c-4.448,0-8.052,3.608-8.052,8.058c0,4.446,3.604,8.047,8.052,8.047
			c4.442,0,8.048-3.601,8.048-8.047C203.184,13.443,199.579,9.834,195.136,9.834z M195.136,24.502c-3.65,0-6.613-2.959-6.613-6.61
			c0-3.648,2.963-6.613,6.613-6.613c3.646,0,6.613,2.965,6.613,6.613C201.75,21.543,198.782,24.502,195.136,24.502z"/>
	</g>
</g>
<polygon fill="#FFD303" points="45.767,26.149 37.969,26.149 35.306,15.815 48.464,15.815 "/>
</svg>
